<?xml version="1.0" encoding="UTF-8" standalone="no"?>
<svg
   xmlns:dc="http://purl.org/dc/elements/1.1/"
   xmlns:cc="http://creativecommons.org/ns#"
   xmlns:rdf="http://www.w3.org/1999/02/22-rdf-syntax-ns#"
   xmlns:svg="http://www.w3.org/2000/svg"
   xmlns="http://www.w3.org/2000/svg"
   xmlns:sodipodi="http://sodipodi.sourceforge.net/DTD/sodipodi-0.dtd"
   xmlns:inkscape="http://www.inkscape.org/namespaces/inkscape"
   aria-hidden="true"
   focusable="false"
   data-prefix="fas"
   data-icon="lightbulb"
   class="svg-inline--fa fa-lightbulb fa-w-11"
   role="img"
   viewBox="0 0 512 512"
   version="1.1"
   id="svg4"
   sodipodi:docname="bulb_on.svg"
   width="512"
   height="512"
   inkscape:version="1.0 (4035a4fb49, 2020-05-01)">
  <metadata
     id="metadata10">
    <rdf:RDF>
      <cc:Work
         rdf:about="">
        <dc:format>image/svg+xml</dc:format>
        <dc:type
           rdf:resource="http://purl.org/dc/dcmitype/StillImage" />
        <dc:title />
      </cc:Work>
    </rdf:RDF>
  </metadata>
  <defs
     id="defs8" />
  <sodipodi:namedview
     inkscape:document-rotation="0"
     pagecolor="#ffffff"
     bordercolor="#666666"
     borderopacity="1"
     objecttolerance="10"
     gridtolerance="10"
     guidetolerance="10"
     inkscape:pageopacity="0"
     inkscape:pageshadow="2"
     inkscape:window-width="1920"
     inkscape:window-height="1017"
     id="namedview6"
     showgrid="false"
     inkscape:zoom="1.6601563"
     inkscape:cx="232.26578"
     inkscape:cy="262.66891"
     inkscape:window-x="-8"
     inkscape:window-y="-8"
     inkscape:window-maximized="1"
     inkscape:current-layer="svg4" />
  <path
     fill="currentColor"
     d="m 194.14797,448.65586 c 0.008,4.86677 1.44688,9.63295 4.1472,13.6873 l 13.22306,19.87714 a 24.751643,24.751643 0 0 0 20.61218,11.04887 h 47.74692 a 24.751643,24.751643 0 0 0 20.61218,-11.04887 l 13.22306,-19.87714 a 24.750869,24.750869 0 0 0 4.14719,-13.6873 l 0.031,-29.67256 H 194.10929 Z M 119.82341,233.28794 c 0,34.33043 12.72787,65.65105 33.70371,89.58254 12.78203,14.58482 32.77523,45.05433 40.39647,70.75766 0.031,0.20117 0.0542,0.40234 0.0851,0.60351 h 123.9826 c 0.0309,-0.20117 0.0542,-0.3946 0.0851,-0.60351 7.62124,-25.70333 27.61444,-56.17284 40.39647,-70.75766 20.97584,-23.93149 33.70371,-55.25211 33.70371,-89.58254 0,-75.35362 -61.19436,-136.408703 -136.60214,-136.176583 C 176.64619,97.351213 119.82341,161.30778 119.82341,233.28794 Z M 256,171.38949 c -34.12926,0 -61.89845,27.7692 -61.89845,61.89845 0,6.83978 -5.53991,12.37969 -12.37969,12.37969 -6.83978,0 -12.37969,-5.53991 -12.37969,-12.37969 0,-47.7856 38.87223,-86.65783 86.65783,-86.65783 6.83978,0 12.37969,5.53992 12.37969,12.37969 0,6.83978 -5.53991,12.37969 -12.37969,12.37969 z"
     id="path2"
     style="stroke-width:0.773731" />
  <path
     style="fill:none;stroke:#000000;stroke-width:37.4424;stroke-linecap:round;stroke-linejoin:round;stroke-miterlimit:4;stroke-dasharray:none;stroke-opacity:1"
     d="M 59.398702,237.92942 H 17.702474"
     id="path835"
     inkscape:transform-center-x="189.13882"
     inkscape:transform-center-y="-3.6141176" />
  <path
     inkscape:transform-center-y="-109.64851"
     inkscape:transform-center-x="154.15498"
     id="path837"
     d="M 85.743264,125.89167 51.31001,102.37728"
     style="fill:none;stroke:#000000;stroke-width:37.4424;stroke-linecap:round;stroke-linejoin:round;stroke-miterlimit:4;stroke-dasharray:none;stroke-opacity:1" />
  <path
     style="fill:none;stroke:#000000;stroke-width:37.4424;stroke-linecap:round;stroke-linejoin:round;stroke-miterlimit:4;stroke-dasharray:none;stroke-opacity:1"
     d="M 187.03425,59.813645 174.14409,20.159902"
     id="path839"
     inkscape:transform-center-x="55.034171"
     inkscape:transform-center-y="-180.99114" />
  <path
     inkscape:transform-center-y="-173.38138"
     inkscape:transform-center-x="-75.666704"
     id="path841"
     d="M 332.06672,60.234217 348.01149,21.707088"
     style="fill:none;stroke:#000000;stroke-width:37.4424;stroke-linecap:round;stroke-linejoin:round;stroke-miterlimit:4;stroke-dasharray:none;stroke-opacity:1" />
  <path
     style="fill:none;stroke:#000000;stroke-width:37.4424;stroke-linecap:round;stroke-linejoin:round;stroke-miterlimit:4;stroke-dasharray:none;stroke-opacity:1"
     d="M 432.51416,127.98934 468.62605,107.1445"
     id="path843"
     inkscape:transform-center-x="-165.61436"
     inkscape:transform-center-y="-91.424474" />
  <path
     inkscape:transform-center-y="2.215966"
     inkscape:transform-center-x="-189.16036"
     id="path845"
     d="m 451.15145,239.69713 41.6951,-0.3082"
     style="fill:none;stroke:#000000;stroke-width:37.4424;stroke-linecap:round;stroke-linejoin:round;stroke-miterlimit:4;stroke-dasharray:none;stroke-opacity:1" />
</svg>
